<?xml version="1.0" standalone="no"?><!DOCTYPE svg PUBLIC "-//W3C//DTD SVG 1.1//EN" "http://www.w3.org/Graphics/SVG/1.1/DTD/svg11.dtd"><svg t="1710687836655" class="icon" viewBox="0 0 1024 1024" version="1.1" xmlns="http://www.w3.org/2000/svg" p-id="42388" width="600" height="600" xmlns:xlink="http://www.w3.org/1999/xlink"><path d="M317.056 1024c-68.416-142.72-32.384-224.768 21.568-299.712 57.6-85.632 71.936-167.68 71.936-167.68s46.784 57.088 28.8 149.824c79.168-89.152 93.568-231.872 82.752-285.44 179.904 124.928 259.072 399.616 154.752 599.424 554.112-313.984 136.704-781.376 64.768-831.36 25.152 53.568 28.8 142.72-21.632 185.6C637.248 60.672 432.192 0 432.192 0c25.152 160.576-86.4 335.36-194.304 467.392-3.584-64.192-7.232-107.008-43.2-171.264-7.168 117.76-97.152 210.56-122.304 328.32-32.384 160.512 25.152 274.688 244.672 399.552z" fill="#FF5500" p-id="42389"></path></svg>